<svg xmlns="http://www.w3.org/2000/svg" viewBox="0 0 512 512">
  <defs>
    <linearGradient id="icon-bg" x1="0" y1="0" x2="1" y2="1">
      <stop offset="0" stop-color="#0f766e"/>
      <stop offset="1" stop-color="#6d28d9"/>
    </linearGradient>
    <filter id="icon-shadow" x="-10%" y="-10%" width="120%" height="120%">
      <feDropShadow dx="0" dy="1" stdDeviation="1" flood-color="#000" flood-opacity="0.3"/>
    </filter>
  </defs>
  <rect width="512" height="512" rx="96" fill="url(#icon-bg)"/>
  <!-- Receipt glyph from LogoTitle.tsx, centered on (17,17) so the farthest
       corners stay inside the maskable safe circle (r=204.8) at scale 10. -->
  <g transform="translate(86, 86) scale(10)">
    <g filter="url(#icon-shadow)">
      <path
        d="M 5,2 H 27 C 28.1,2 29,2.9 29,4 V 32 L 25.5,29.5 L 22,32 L 18.5,29.5 L 15,32 L 11.5,29.5 L 8,32 V 4 C 8,2.9 8.9,2 10,2 Z"
        fill="rgba(255, 255, 255, 0.12)"
        stroke="#ffffff"
        stroke-width="2.2"
        stroke-linejoin="round"
        stroke-linecap="round"
      />
      <line x1="12" y1="9" x2="23" y2="9" stroke="#ffffff" stroke-width="2" stroke-linecap="round"/>
      <line x1="12" y1="14" x2="19" y2="14" stroke="#ffffff" stroke-width="1.8" stroke-linecap="round"/>
      <line x1="12" y1="19" x2="17" y2="19" stroke="#ffffff" stroke-width="1.8" stroke-linecap="round"/>
      <line x1="12" y1="24" x2="22" y2="24" stroke="#ffedd5" stroke-width="1.8" stroke-linecap="round"/>
      <path d="M 23,17 L 34,22 L 23,27 L 26,22 Z" fill="#ffedd5" stroke="#ffffff" stroke-width="0.5"/>
      <line x1="19" y1="19" x2="22" y2="19" stroke="#ffedd5" stroke-width="1.5" stroke-linecap="round"/>
      <line x1="19" y1="25" x2="22" y2="25" stroke="#ffedd5" stroke-width="1.5" stroke-linecap="round"/>
    </g>
  </g>
</svg>
